<svg width="1725" height="760" viewBox="0 0 1725 760" fill="none" xmlns="http://www.w3.org/2000/svg">
<g opacity="0.5">
<mask id="path-1-outside-1_8_1378" maskUnits="userSpaceOnUse" x="0.450317" y="0" width="197" height="191" fill="black">
<rect fill="white" x="0.450317" width="197" height="191"/>
<path d="M1.45032 0H195.82V189.6H1.45032V0Z"/>
</mask>
<path d="M1.45032 0H195.82V189.6H1.45032V0Z" fill="#0F1216"/>
<path d="M195.82 189.6V190.6H196.82V189.6H195.82ZM1.45032 189.6H0.450317V190.6H1.45032V189.6ZM194.82 0V189.6H196.82V0H194.82ZM195.82 188.6H1.45032V190.6H195.82V188.6ZM2.45032 189.6V0H0.450317V189.6H2.45032Z" fill="white" fill-opacity="0.07" mask="url(#path-1-outside-1_8_1378)"/>
<line opacity="0.5" x1="1180.09" y1="189.1" x2="1368.7" y2="189.1" stroke="url(#paint0_linear_8_1378)" stroke-linecap="round"/>
<rect x="1176.02" y="379.2" width="194.37" height="189.6" fill="#0F1216" fill-opacity="0.6"/>
<rect x="1175.52" y="378.7" width="195.37" height="190.6" stroke="white" stroke-opacity="0.07"/>
<line opacity="0.5" x1="1176.52" y1="379.7" x2="1176.52" y2="568.303" stroke="url(#paint1_linear_8_1378)" stroke-linecap="round"/>
<rect x="392.575" y="189.6" width="194.37" height="189.6" fill="#0F1216" fill-opacity="0.3"/>
<rect x="392.075" y="189.1" width="195.37" height="190.6" stroke="white" stroke-opacity="0.07"/>
<line opacity="0.5" x1="393.075" y1="189.1" x2="581.679" y2="189.1" stroke="url(#paint2_linear_8_1378)" stroke-linecap="round"/>
<rect x="198.205" y="568.8" width="194.37" height="189.6" fill="#0F1216" fill-opacity="0.5"/>
<rect x="197.705" y="568.3" width="195.37" height="190.6" stroke="white" stroke-opacity="0.07"/>
<line opacity="0.5" x1="198.705" y1="757.9" x2="387.309" y2="757.9" stroke="url(#paint3_linear_8_1378)" stroke-linecap="round"/>
<rect x="1567.14" y="568.8" width="194.37" height="189.6" fill="#0F1216" fill-opacity="0.5"/>
<rect x="1566.64" y="568.3" width="195.37" height="190.6" stroke="white" stroke-opacity="0.07"/>
</g>
<defs>
<linearGradient id="paint0_linear_8_1378" x1="1179.59" y1="189.6" x2="1369.19" y2="189.6" gradientUnits="userSpaceOnUse">
<stop stop-color="#448AFF" stop-opacity="0"/>
<stop offset="0.473958" stop-color="#448AFF"/>
<stop offset="0.557292" stop-color="#12E6C8"/>
<stop offset="1" stop-color="#12E6C8" stop-opacity="0"/>
</linearGradient>
<linearGradient id="paint1_linear_8_1378" x1="1176.02" y1="379.2" x2="1176.02" y2="568.8" gradientUnits="userSpaceOnUse">
<stop stop-color="#448AFF" stop-opacity="0"/>
<stop offset="0.473958" stop-color="#448AFF"/>
<stop offset="0.557292" stop-color="#12E6C8"/>
<stop offset="1" stop-color="#12E6C8" stop-opacity="0"/>
</linearGradient>
<linearGradient id="paint2_linear_8_1378" x1="392.575" y1="189.6" x2="582.175" y2="189.6" gradientUnits="userSpaceOnUse">
<stop stop-color="#448AFF" stop-opacity="0"/>
<stop offset="0.473958" stop-color="#448AFF"/>
<stop offset="0.557292" stop-color="#12E6C8"/>
<stop offset="1" stop-color="#12E6C8" stop-opacity="0"/>
</linearGradient>
<linearGradient id="paint3_linear_8_1378" x1="198.205" y1="758.4" x2="387.805" y2="758.4" gradientUnits="userSpaceOnUse">
<stop stop-color="#448AFF" stop-opacity="0"/>
<stop offset="0.473958" stop-color="#448AFF"/>
<stop offset="0.557292" stop-color="#12E6C8"/>
<stop offset="1" stop-color="#12E6C8" stop-opacity="0"/>
</linearGradient>
</defs>
</svg>
