<svg width="132" height="132" viewBox="0 0 132 132" fill="none" xmlns="http://www.w3.org/2000/svg">
<path d="M66 0.719971C29.9872 0.719971 0.719971 29.9872 0.719971 66C0.719971 102.013 29.9872 131.28 66 131.28C102.013 131.28 131.28 102.013 131.28 66C131.28 29.9872 102.013 0.719971 66 0.719971ZM90.8608 72.7456L60.3424 93.5264C58.9824 94.4512 57.3504 94.9408 55.7728 94.9408C54.4672 94.9408 53.1616 94.6144 51.9648 94.016C49.2992 92.6016 47.6128 89.8272 47.6128 86.7808V45.2192C47.6128 42.1728 49.2992 39.3984 51.9648 37.984C54.576 36.624 57.84 36.7872 60.3424 38.4736L90.8608 59.2544C93.0912 60.7776 94.4512 63.28 94.4512 66C94.4512 68.72 93.0912 71.2224 90.8608 72.7456Z" fill="#F6F6F4"/>
</svg>
