<svg width="360" height="1679" viewBox="0 0 360 1679" fill="none" xmlns="http://www.w3.org/2000/svg">
<g clip-path="url(#clip0_209_7129)">
<g filter="url(#filter0_f_209_7129)">
<ellipse cx="273.96" cy="496.929" rx="273.96" ry="496.929" transform="matrix(0.999926 0.0129808 -0.0042782 0.999999 223.252 314.03)" fill="url(#paint0_linear_209_7129)"/>
</g>
<path d="M739 -49C455.126 -49 225 337.826 225 815C225 1292.17 455.126 1679 739 1679L739 -49Z" fill="url(#paint1_linear_209_7129)"/>
<g opacity="0.2">
<g style="mix-blend-mode:color-dodge">
<rect width="4.86135" height="46.669" transform="translate(256.781 1211.22) rotate(-45)" fill="black"/>
<ellipse cx="275" cy="1226" rx="2.43068" ry="23.3345" transform="rotate(-45 275 1226)" fill="url(#paint2_radial_209_7129)"/>
</g>
<g style="mix-blend-mode:color-dodge">
<rect width="4.86135" height="46.669" transform="translate(260.219 1244.22) rotate(-135)" fill="black"/>
<ellipse cx="275" cy="1226" rx="2.43068" ry="23.3345" transform="rotate(-135 275 1226)" fill="url(#paint3_radial_209_7129)"/>
</g>
</g>
<g opacity="0.2">
<g style="mix-blend-mode:color-dodge">
<rect width="4.86135" height="46.669" transform="translate(289.781 332.218) rotate(-45)" fill="black"/>
<ellipse cx="308" cy="346.999" rx="2.43068" ry="23.3345" transform="rotate(-45 308 346.999)" fill="url(#paint4_radial_209_7129)"/>
</g>
<g style="mix-blend-mode:color-dodge">
<rect width="4.86135" height="46.669" transform="translate(293.219 365.218) rotate(-135)" fill="black"/>
<ellipse cx="308" cy="347" rx="2.43068" ry="23.3345" transform="rotate(-135 308 347)" fill="url(#paint5_radial_209_7129)"/>
</g>
</g>
<g opacity="0.2">
<g style="mix-blend-mode:color-dodge">
<rect width="3.09359" height="29.6984" transform="translate(47.4061 740.593) rotate(-45)" fill="black"/>
<ellipse cx="58.9999" cy="750" rx="1.54679" ry="14.8492" transform="rotate(-45 58.9999 750)" fill="url(#paint6_radial_209_7129)"/>
</g>
<g style="mix-blend-mode:color-dodge">
<rect width="3.09358" height="29.6984" transform="translate(49.5938 761.593) rotate(-135)" fill="black"/>
<ellipse cx="59" cy="750" rx="1.54679" ry="14.8492" transform="rotate(-135 59 750)" fill="url(#paint7_radial_209_7129)"/>
</g>
</g>
<g opacity="0.2">
<g style="mix-blend-mode:color-dodge">
<rect width="3.09359" height="29.6984" transform="translate(139.406 1045.59) rotate(-45)" fill="black"/>
<ellipse cx="151" cy="1055" rx="1.54679" ry="14.8492" transform="rotate(-45 151 1055)" fill="url(#paint8_radial_209_7129)"/>
</g>
<g style="mix-blend-mode:color-dodge">
<rect width="3.09358" height="29.6984" transform="translate(141.594 1066.59) rotate(-135)" fill="black"/>
<ellipse cx="151" cy="1055" rx="1.54679" ry="14.8492" transform="rotate(-135 151 1055)" fill="url(#paint9_radial_209_7129)"/>
</g>
</g>
<g opacity="0.2">
<g style="mix-blend-mode:color-dodge">
<rect width="3.09359" height="29.6984" transform="translate(35.4061 439.593) rotate(-45)" fill="black"/>
<ellipse cx="46.9999" cy="448.999" rx="1.54679" ry="14.8492" transform="rotate(-45 46.9999 448.999)" fill="url(#paint10_radial_209_7129)"/>
</g>
<g style="mix-blend-mode:color-dodge">
<rect width="3.09358" height="29.6984" transform="translate(37.5938 460.593) rotate(-135)" fill="black"/>
<ellipse cx="47" cy="449" rx="1.54679" ry="14.8492" transform="rotate(-135 47 449)" fill="url(#paint11_radial_209_7129)"/>
</g>
</g>
<g opacity="0.2">
<g style="mix-blend-mode:color-dodge">
<rect width="3.09359" height="29.6984" transform="translate(169.406 358.593) rotate(-45)" fill="black"/>
<ellipse cx="181" cy="367.999" rx="1.54679" ry="14.8492" transform="rotate(-45 181 367.999)" fill="url(#paint12_radial_209_7129)"/>
</g>
<g style="mix-blend-mode:color-dodge">
<rect width="3.09358" height="29.6984" transform="translate(171.594 379.593) rotate(-135)" fill="black"/>
<ellipse cx="181" cy="368" rx="1.54679" ry="14.8492" transform="rotate(-135 181 368)" fill="url(#paint13_radial_209_7129)"/>
</g>
</g>
<g opacity="0.2">
<g style="mix-blend-mode:color-dodge">
<rect width="3.09359" height="29.6984" transform="translate(85.4062 1249.59) rotate(-45)" fill="black"/>
<ellipse cx="96.9999" cy="1259" rx="1.54679" ry="14.8492" transform="rotate(-45 96.9999 1259)" fill="url(#paint14_radial_209_7129)"/>
</g>
<g style="mix-blend-mode:color-dodge">
<rect width="3.09358" height="29.6984" transform="translate(87.5938 1270.59) rotate(-135)" fill="black"/>
<ellipse cx="97" cy="1259" rx="1.54679" ry="14.8492" transform="rotate(-135 97 1259)" fill="url(#paint15_radial_209_7129)"/>
</g>
</g>
<g style="mix-blend-mode:color-dodge" opacity="0.2">
<rect width="24" height="24" transform="translate(195 1144) rotate(-90)" fill="black"/>
<circle cx="207" cy="1132" r="12" transform="rotate(-90 207 1132)" fill="url(#paint16_radial_209_7129)"/>
</g>
<g style="mix-blend-mode:color-dodge" opacity="0.2">
<rect width="17" height="17" transform="translate(107 1153) rotate(-90)" fill="black"/>
<circle cx="115.5" cy="1144.5" r="8.5" transform="rotate(-90 115.5 1144.5)" fill="url(#paint17_radial_209_7129)"/>
</g>
<g style="mix-blend-mode:color-dodge" opacity="0.2">
<rect width="24" height="24" transform="translate(45 1184) rotate(-90)" fill="black"/>
<circle cx="57" cy="1172" r="12" transform="rotate(-90 57 1172)" fill="url(#paint18_radial_209_7129)"/>
</g>
<g style="mix-blend-mode:color-dodge" opacity="0.2">
<rect width="10" height="10" transform="matrix(0 -1 1 0 95 1105)" fill="black"/>
<circle cx="100" cy="1100" r="5" transform="rotate(-90 100 1100)" fill="url(#paint19_radial_209_7129)"/>
</g>
<g style="mix-blend-mode:color-dodge" opacity="0.2">
<rect width="10" height="10" transform="matrix(0 -1 1 0 52 1045)" fill="black"/>
<circle cx="57" cy="1040" r="5" transform="rotate(-90 57 1040)" fill="url(#paint20_radial_209_7129)"/>
</g>
<g style="mix-blend-mode:color-dodge" opacity="0.2">
<rect width="10" height="10" transform="matrix(0 -1 1 0 156 1328)" fill="black"/>
<circle cx="161" cy="1323" r="5" transform="rotate(-90 161 1323)" fill="url(#paint21_radial_209_7129)"/>
</g>
<g style="mix-blend-mode:color-dodge" opacity="0.2">
<rect width="10" height="10" transform="matrix(0 -1 1 0 113 992)" fill="black"/>
<circle cx="118" cy="987" r="5" transform="rotate(-90 118 987)" fill="url(#paint22_radial_209_7129)"/>
</g>
<g style="mix-blend-mode:color-dodge" opacity="0.2">
<rect width="10" height="10" transform="matrix(0 -1 1 0 190 1049)" fill="black"/>
<circle cx="195" cy="1044" r="5" transform="rotate(-90 195 1044)" fill="url(#paint23_radial_209_7129)"/>
</g>
<g style="mix-blend-mode:color-dodge" opacity="0.2">
<rect width="10" height="10" transform="matrix(0 -1 1 0 171 1223)" fill="black"/>
<circle cx="176" cy="1218" r="5" transform="rotate(-90 176 1218)" fill="url(#paint24_radial_209_7129)"/>
</g>
<g style="mix-blend-mode:color-dodge" opacity="0.2">
<rect width="10" height="10" transform="matrix(0 -1 1 0 209 1338)" fill="black"/>
<circle cx="214" cy="1333" r="5" transform="rotate(-90 214 1333)" fill="url(#paint25_radial_209_7129)"/>
</g>
<g style="mix-blend-mode:color-dodge" opacity="0.2">
<rect width="10" height="10" transform="matrix(0 -1 1 0 288 1306)" fill="black"/>
<circle cx="293" cy="1301" r="5" transform="rotate(-90 293 1301)" fill="url(#paint26_radial_209_7129)"/>
</g>
<g style="mix-blend-mode:color-dodge" opacity="0.2">
<rect width="10" height="10" transform="matrix(0 -1 1 0 308 1391)" fill="black"/>
<circle cx="313" cy="1386" r="5" transform="rotate(-90 313 1386)" fill="url(#paint27_radial_209_7129)"/>
</g>
<g style="mix-blend-mode:color-dodge" opacity="0.2">
<rect width="10" height="10" transform="matrix(0 -1 1 0 355 1383)" fill="black"/>
<circle cx="360" cy="1378" r="5" transform="rotate(-90 360 1378)" fill="url(#paint28_radial_209_7129)"/>
</g>
<g style="mix-blend-mode:color-dodge" opacity="0.2">
<rect width="10" height="10" transform="matrix(0 -1 1 0 161 744)" fill="black"/>
<circle cx="166" cy="739" r="5" transform="rotate(-90 166 739)" fill="url(#paint29_radial_209_7129)"/>
</g>
<g style="mix-blend-mode:color-dodge" opacity="0.2">
<rect width="10" height="10" transform="matrix(0 -1 1 0 200 667)" fill="black"/>
<circle cx="205" cy="662" r="5" transform="rotate(-90 205 662)" fill="url(#paint30_radial_209_7129)"/>
</g>
<g style="mix-blend-mode:color-dodge" opacity="0.2">
<rect width="10" height="10" transform="matrix(0 -1 1 0 69 711)" fill="black"/>
<circle cx="74" cy="706" r="5" transform="rotate(-90 74 706)" fill="url(#paint31_radial_209_7129)"/>
</g>
<g style="mix-blend-mode:color-dodge" opacity="0.2">
<rect width="10" height="10" transform="matrix(0 -1 1 0 35 677)" fill="black"/>
<circle cx="40" cy="672" r="5" transform="rotate(-90 40 672)" fill="url(#paint32_radial_209_7129)"/>
</g>
<g style="mix-blend-mode:color-dodge" opacity="0.2">
<rect width="10" height="10" transform="matrix(0 -1 1 0 123 663)" fill="black"/>
<circle cx="128" cy="658" r="5" transform="rotate(-90 128 658)" fill="url(#paint33_radial_209_7129)"/>
</g>
<g style="mix-blend-mode:color-dodge" opacity="0.2">
<rect width="10" height="10" transform="matrix(0 -1 1 0 219 562)" fill="black"/>
<circle cx="224" cy="557" r="5" transform="rotate(-90 224 557)" fill="url(#paint34_radial_209_7129)"/>
</g>
<g style="mix-blend-mode:color-dodge" opacity="0.2">
<rect width="10" height="10" transform="matrix(0 -1 1 0 252 464)" fill="black"/>
<circle cx="257" cy="459" r="5" transform="rotate(-90 257 459)" fill="url(#paint35_radial_209_7129)"/>
</g>
<g style="mix-blend-mode:color-dodge" opacity="0.2">
<rect width="10" height="10" transform="matrix(0 -1 1 0 62 814)" fill="black"/>
<circle cx="67" cy="809" r="5" transform="rotate(-90 67 809)" fill="url(#paint36_radial_209_7129)"/>
</g>
<g style="mix-blend-mode:color-dodge" opacity="0.2">
<rect width="10" height="10" transform="matrix(0 -1 1 0 35 913)" fill="black"/>
<circle cx="40" cy="908" r="5" transform="rotate(-90 40 908)" fill="url(#paint37_radial_209_7129)"/>
</g>
<circle opacity="0.2" cx="118" cy="879" r="5" transform="rotate(-90 118 879)" fill="url(#paint38_radial_209_7129)"/>
<circle opacity="0.2" cx="128" cy="788" r="5" transform="rotate(-90 128 788)" fill="url(#paint39_radial_209_7129)"/>
<circle opacity="0.2" cx="195" cy="830" r="5" transform="rotate(-90 195 830)" fill="url(#paint40_radial_209_7129)"/>
<circle opacity="0.2" cx="156" cy="601" r="5" transform="rotate(-90 156 601)" fill="url(#paint41_radial_209_7129)"/>
<circle opacity="0.2" cx="84" cy="621" r="5" transform="rotate(-90 84 621)" fill="url(#paint42_radial_209_7129)"/>
<circle opacity="0.2" cx="47" cy="541" r="5" transform="rotate(-90 47 541)" fill="url(#paint43_radial_209_7129)"/>
<circle opacity="0.2" cx="171" cy="511" r="5" transform="rotate(-90 171 511)" fill="url(#paint44_radial_209_7129)"/>
<circle opacity="0.2" cx="118" cy="551" r="5" transform="rotate(-90 118 551)" fill="url(#paint45_radial_209_7129)"/>
<circle opacity="0.2" cx="118" cy="454" r="5" transform="rotate(-90 118 454)" fill="url(#paint46_radial_209_7129)"/>
<circle opacity="0.2" cx="230" cy="449" r="5" transform="rotate(-90 230 449)" fill="url(#paint47_radial_209_7129)"/>
<circle opacity="0.2" cx="200" cy="918" r="5" transform="rotate(-90 200 918)" fill="url(#paint48_radial_209_7129)"/>
</g>
<defs>
<filter id="filter0_f_209_7129" x="-59.298" y="37.1581" width="1108.73" height="1554.71" filterUnits="userSpaceOnUse" color-interpolation-filters="sRGB">
<feFlood flood-opacity="0" result="BackgroundImageFix"/>
<feBlend mode="normal" in="SourceGraphic" in2="BackgroundImageFix" result="shape"/>
<feGaussianBlur stdDeviation="140.208" result="effect1_foregroundBlur_209_7129"/>
</filter>
<linearGradient id="paint0_linear_209_7129" x1="36.8425" y1="560.788" x2="832.689" y2="-16.6721" gradientUnits="userSpaceOnUse">
<stop stop-color="#448AFF"/>
<stop offset="1" stop-color="#448AFF"/>
</linearGradient>
<linearGradient id="paint1_linear_209_7129" x1="595.349" y1="815" x2="40.1994" y2="815" gradientUnits="userSpaceOnUse">
<stop stop-color="#0D0E12"/>
<stop offset="1" stop-color="#0D0E12" stop-opacity="0.8"/>
</linearGradient>
<radialGradient id="paint2_radial_209_7129" cx="0" cy="0" r="1" gradientUnits="userSpaceOnUse" gradientTransform="translate(275 1226) rotate(90) scale(23.3345 2.43068)">
<stop offset="0.0364583" stop-color="#FFF1E4"/>
<stop offset="1" stop-color="#3A71FF" stop-opacity="0"/>
</radialGradient>
<radialGradient id="paint3_radial_209_7129" cx="0" cy="0" r="1" gradientUnits="userSpaceOnUse" gradientTransform="translate(275 1226) rotate(90) scale(23.3345 2.43068)">
<stop offset="0.0364583" stop-color="#FFF1E4"/>
<stop offset="1" stop-color="#3A71FF" stop-opacity="0"/>
</radialGradient>
<radialGradient id="paint4_radial_209_7129" cx="0" cy="0" r="1" gradientUnits="userSpaceOnUse" gradientTransform="translate(308 346.999) rotate(90) scale(23.3345 2.43068)">
<stop offset="0.0364583" stop-color="#FFF1E4"/>
<stop offset="1" stop-color="#3A71FF" stop-opacity="0"/>
</radialGradient>
<radialGradient id="paint5_radial_209_7129" cx="0" cy="0" r="1" gradientUnits="userSpaceOnUse" gradientTransform="translate(308 347) rotate(90) scale(23.3345 2.43068)">
<stop offset="0.0364583" stop-color="#FFF1E4"/>
<stop offset="1" stop-color="#3A71FF" stop-opacity="0"/>
</radialGradient>
<radialGradient id="paint6_radial_209_7129" cx="0" cy="0" r="1" gradientUnits="userSpaceOnUse" gradientTransform="translate(58.9999 750) rotate(90) scale(14.8492 1.54679)">
<stop offset="0.0364583" stop-color="#FFF1E4"/>
<stop offset="1" stop-color="#3A71FF" stop-opacity="0"/>
</radialGradient>
<radialGradient id="paint7_radial_209_7129" cx="0" cy="0" r="1" gradientUnits="userSpaceOnUse" gradientTransform="translate(59 750) rotate(90) scale(14.8492 1.54679)">
<stop offset="0.0364583" stop-color="#FFF1E4"/>
<stop offset="1" stop-color="#3A71FF" stop-opacity="0"/>
</radialGradient>
<radialGradient id="paint8_radial_209_7129" cx="0" cy="0" r="1" gradientUnits="userSpaceOnUse" gradientTransform="translate(151 1055) rotate(90) scale(14.8492 1.54679)">
<stop offset="0.0364583" stop-color="#FFF1E4"/>
<stop offset="1" stop-color="#3A71FF" stop-opacity="0"/>
</radialGradient>
<radialGradient id="paint9_radial_209_7129" cx="0" cy="0" r="1" gradientUnits="userSpaceOnUse" gradientTransform="translate(151 1055) rotate(90) scale(14.8492 1.54679)">
<stop offset="0.0364583" stop-color="#FFF1E4"/>
<stop offset="1" stop-color="#3A71FF" stop-opacity="0"/>
</radialGradient>
<radialGradient id="paint10_radial_209_7129" cx="0" cy="0" r="1" gradientUnits="userSpaceOnUse" gradientTransform="translate(46.9999 448.999) rotate(90) scale(14.8492 1.54679)">
<stop offset="0.0364583" stop-color="#FFF1E4"/>
<stop offset="1" stop-color="#3A71FF" stop-opacity="0"/>
</radialGradient>
<radialGradient id="paint11_radial_209_7129" cx="0" cy="0" r="1" gradientUnits="userSpaceOnUse" gradientTransform="translate(47 449) rotate(90) scale(14.8492 1.54679)">
<stop offset="0.0364583" stop-color="#FFF1E4"/>
<stop offset="1" stop-color="#3A71FF" stop-opacity="0"/>
</radialGradient>
<radialGradient id="paint12_radial_209_7129" cx="0" cy="0" r="1" gradientUnits="userSpaceOnUse" gradientTransform="translate(181 367.999) rotate(90) scale(14.8492 1.54679)">
<stop offset="0.0364583" stop-color="#FFF1E4"/>
<stop offset="1" stop-color="#3A71FF" stop-opacity="0"/>
</radialGradient>
<radialGradient id="paint13_radial_209_7129" cx="0" cy="0" r="1" gradientUnits="userSpaceOnUse" gradientTransform="translate(181 368) rotate(90) scale(14.8492 1.54679)">
<stop offset="0.0364583" stop-color="#FFF1E4"/>
<stop offset="1" stop-color="#3A71FF" stop-opacity="0"/>
</radialGradient>
<radialGradient id="paint14_radial_209_7129" cx="0" cy="0" r="1" gradientUnits="userSpaceOnUse" gradientTransform="translate(96.9999 1259) rotate(90) scale(14.8492 1.54679)">
<stop offset="0.0364583" stop-color="#FFF1E4"/>
<stop offset="1" stop-color="#3A71FF" stop-opacity="0"/>
</radialGradient>
<radialGradient id="paint15_radial_209_7129" cx="0" cy="0" r="1" gradientUnits="userSpaceOnUse" gradientTransform="translate(97 1259) rotate(90) scale(14.8492 1.54679)">
<stop offset="0.0364583" stop-color="#FFF1E4"/>
<stop offset="1" stop-color="#3A71FF" stop-opacity="0"/>
</radialGradient>
<radialGradient id="paint16_radial_209_7129" cx="0" cy="0" r="1" gradientUnits="userSpaceOnUse" gradientTransform="translate(207 1132) rotate(90) scale(12)">
<stop offset="0.145833" stop-color="white"/>
<stop offset="1" stop-color="#FF5E5E" stop-opacity="0"/>
</radialGradient>
<radialGradient id="paint17_radial_209_7129" cx="0" cy="0" r="1" gradientUnits="userSpaceOnUse" gradientTransform="translate(115.5 1144.5) rotate(90) scale(8.5)">
<stop offset="0.145833" stop-color="white"/>
<stop offset="1" stop-color="#FF5E5E" stop-opacity="0"/>
</radialGradient>
<radialGradient id="paint18_radial_209_7129" cx="0" cy="0" r="1" gradientUnits="userSpaceOnUse" gradientTransform="translate(57 1172) rotate(90) scale(12)">
<stop offset="0.145833" stop-color="white"/>
<stop offset="1" stop-color="#FF5E5E" stop-opacity="0"/>
</radialGradient>
<radialGradient id="paint19_radial_209_7129" cx="0" cy="0" r="1" gradientUnits="userSpaceOnUse" gradientTransform="translate(100 1100) rotate(90) scale(5)">
<stop offset="0.015625" stop-color="white"/>
<stop offset="1" stop-color="#FF5E5E" stop-opacity="0"/>
</radialGradient>
<radialGradient id="paint20_radial_209_7129" cx="0" cy="0" r="1" gradientUnits="userSpaceOnUse" gradientTransform="translate(57 1040) rotate(90) scale(5)">
<stop offset="0.015625" stop-color="white"/>
<stop offset="1" stop-color="#FF5E5E" stop-opacity="0"/>
</radialGradient>
<radialGradient id="paint21_radial_209_7129" cx="0" cy="0" r="1" gradientUnits="userSpaceOnUse" gradientTransform="translate(161 1323) rotate(90) scale(5)">
<stop offset="0.015625" stop-color="white"/>
<stop offset="1" stop-color="#FF5E5E" stop-opacity="0"/>
</radialGradient>
<radialGradient id="paint22_radial_209_7129" cx="0" cy="0" r="1" gradientUnits="userSpaceOnUse" gradientTransform="translate(118 987) rotate(90) scale(5)">
<stop offset="0.015625" stop-color="white"/>
<stop offset="1" stop-color="#FF5E5E" stop-opacity="0"/>
</radialGradient>
<radialGradient id="paint23_radial_209_7129" cx="0" cy="0" r="1" gradientUnits="userSpaceOnUse" gradientTransform="translate(195 1044) rotate(90) scale(5)">
<stop offset="0.015625" stop-color="white"/>
<stop offset="1" stop-color="#FF5E5E" stop-opacity="0"/>
</radialGradient>
<radialGradient id="paint24_radial_209_7129" cx="0" cy="0" r="1" gradientUnits="userSpaceOnUse" gradientTransform="translate(176 1218) rotate(90) scale(5)">
<stop offset="0.015625" stop-color="white"/>
<stop offset="1" stop-color="#FF5E5E" stop-opacity="0"/>
</radialGradient>
<radialGradient id="paint25_radial_209_7129" cx="0" cy="0" r="1" gradientUnits="userSpaceOnUse" gradientTransform="translate(214 1333) rotate(90) scale(5)">
<stop offset="0.015625" stop-color="white"/>
<stop offset="1" stop-color="#FF5E5E" stop-opacity="0"/>
</radialGradient>
<radialGradient id="paint26_radial_209_7129" cx="0" cy="0" r="1" gradientUnits="userSpaceOnUse" gradientTransform="translate(293 1301) rotate(90) scale(5)">
<stop offset="0.015625" stop-color="white"/>
<stop offset="1" stop-color="#FF5E5E" stop-opacity="0"/>
</radialGradient>
<radialGradient id="paint27_radial_209_7129" cx="0" cy="0" r="1" gradientUnits="userSpaceOnUse" gradientTransform="translate(313 1386) rotate(90) scale(5)">
<stop offset="0.015625" stop-color="white"/>
<stop offset="1" stop-color="#FF5E5E" stop-opacity="0"/>
</radialGradient>
<radialGradient id="paint28_radial_209_7129" cx="0" cy="0" r="1" gradientUnits="userSpaceOnUse" gradientTransform="translate(360 1378) rotate(90) scale(5)">
<stop offset="0.015625" stop-color="white"/>
<stop offset="1" stop-color="#FF5E5E" stop-opacity="0"/>
</radialGradient>
<radialGradient id="paint29_radial_209_7129" cx="0" cy="0" r="1" gradientUnits="userSpaceOnUse" gradientTransform="translate(166 739) rotate(90) scale(5)">
<stop offset="0.015625" stop-color="white"/>
<stop offset="1" stop-color="#FF5E5E" stop-opacity="0"/>
</radialGradient>
<radialGradient id="paint30_radial_209_7129" cx="0" cy="0" r="1" gradientUnits="userSpaceOnUse" gradientTransform="translate(205 662) rotate(90) scale(5)">
<stop offset="0.015625" stop-color="white"/>
<stop offset="1" stop-color="#FF5E5E" stop-opacity="0"/>
</radialGradient>
<radialGradient id="paint31_radial_209_7129" cx="0" cy="0" r="1" gradientUnits="userSpaceOnUse" gradientTransform="translate(74 706) rotate(90) scale(5)">
<stop offset="0.015625" stop-color="white"/>
<stop offset="1" stop-color="#FF5E5E" stop-opacity="0"/>
</radialGradient>
<radialGradient id="paint32_radial_209_7129" cx="0" cy="0" r="1" gradientUnits="userSpaceOnUse" gradientTransform="translate(40 672) rotate(90) scale(5)">
<stop offset="0.015625" stop-color="white"/>
<stop offset="1" stop-color="#FF5E5E" stop-opacity="0"/>
</radialGradient>
<radialGradient id="paint33_radial_209_7129" cx="0" cy="0" r="1" gradientUnits="userSpaceOnUse" gradientTransform="translate(128 658) rotate(90) scale(5)">
<stop offset="0.015625" stop-color="white"/>
<stop offset="1" stop-color="#FF5E5E" stop-opacity="0"/>
</radialGradient>
<radialGradient id="paint34_radial_209_7129" cx="0" cy="0" r="1" gradientUnits="userSpaceOnUse" gradientTransform="translate(224 557) rotate(90) scale(5)">
<stop offset="0.015625" stop-color="white"/>
<stop offset="1" stop-color="#FF5E5E" stop-opacity="0"/>
</radialGradient>
<radialGradient id="paint35_radial_209_7129" cx="0" cy="0" r="1" gradientUnits="userSpaceOnUse" gradientTransform="translate(257 459) rotate(90) scale(5)">
<stop offset="0.015625" stop-color="white"/>
<stop offset="1" stop-color="#FF5E5E" stop-opacity="0"/>
</radialGradient>
<radialGradient id="paint36_radial_209_7129" cx="0" cy="0" r="1" gradientUnits="userSpaceOnUse" gradientTransform="translate(67 809) rotate(90) scale(5)">
<stop offset="0.015625" stop-color="white"/>
<stop offset="1" stop-color="#FF5E5E" stop-opacity="0"/>
</radialGradient>
<radialGradient id="paint37_radial_209_7129" cx="0" cy="0" r="1" gradientUnits="userSpaceOnUse" gradientTransform="translate(40 908) rotate(90) scale(5)">
<stop offset="0.015625" stop-color="white"/>
<stop offset="1" stop-color="#FF5E5E" stop-opacity="0"/>
</radialGradient>
<radialGradient id="paint38_radial_209_7129" cx="0" cy="0" r="1" gradientUnits="userSpaceOnUse" gradientTransform="translate(118 879) rotate(90) scale(5)">
<stop offset="0.015625" stop-color="white"/>
<stop offset="1" stop-color="#1C7EFF" stop-opacity="0"/>
</radialGradient>
<radialGradient id="paint39_radial_209_7129" cx="0" cy="0" r="1" gradientUnits="userSpaceOnUse" gradientTransform="translate(128 788) rotate(90) scale(5)">
<stop offset="0.015625" stop-color="white"/>
<stop offset="1" stop-color="#1C7EFF" stop-opacity="0"/>
</radialGradient>
<radialGradient id="paint40_radial_209_7129" cx="0" cy="0" r="1" gradientUnits="userSpaceOnUse" gradientTransform="translate(195 830) rotate(90) scale(5)">
<stop offset="0.015625" stop-color="white"/>
<stop offset="1" stop-color="#1C7EFF" stop-opacity="0"/>
</radialGradient>
<radialGradient id="paint41_radial_209_7129" cx="0" cy="0" r="1" gradientUnits="userSpaceOnUse" gradientTransform="translate(156 601) rotate(90) scale(5)">
<stop offset="0.015625" stop-color="white"/>
<stop offset="1" stop-color="#1C7EFF" stop-opacity="0"/>
</radialGradient>
<radialGradient id="paint42_radial_209_7129" cx="0" cy="0" r="1" gradientUnits="userSpaceOnUse" gradientTransform="translate(84 621) rotate(90) scale(5)">
<stop offset="0.015625" stop-color="white"/>
<stop offset="1" stop-color="#1C7EFF" stop-opacity="0"/>
</radialGradient>
<radialGradient id="paint43_radial_209_7129" cx="0" cy="0" r="1" gradientUnits="userSpaceOnUse" gradientTransform="translate(47 541) rotate(90) scale(5)">
<stop offset="0.015625" stop-color="white"/>
<stop offset="1" stop-color="#1C7EFF" stop-opacity="0"/>
</radialGradient>
<radialGradient id="paint44_radial_209_7129" cx="0" cy="0" r="1" gradientUnits="userSpaceOnUse" gradientTransform="translate(171 511) rotate(90) scale(5)">
<stop offset="0.015625" stop-color="white"/>
<stop offset="1" stop-color="#1C7EFF" stop-opacity="0"/>
</radialGradient>
<radialGradient id="paint45_radial_209_7129" cx="0" cy="0" r="1" gradientUnits="userSpaceOnUse" gradientTransform="translate(118 551) rotate(90) scale(5)">
<stop offset="0.015625" stop-color="white"/>
<stop offset="1" stop-color="#1C7EFF" stop-opacity="0"/>
</radialGradient>
<radialGradient id="paint46_radial_209_7129" cx="0" cy="0" r="1" gradientUnits="userSpaceOnUse" gradientTransform="translate(118 454) rotate(90) scale(5)">
<stop offset="0.015625" stop-color="white"/>
<stop offset="1" stop-color="#1C7EFF" stop-opacity="0"/>
</radialGradient>
<radialGradient id="paint47_radial_209_7129" cx="0" cy="0" r="1" gradientUnits="userSpaceOnUse" gradientTransform="translate(230 449) rotate(90) scale(5)">
<stop offset="0.015625" stop-color="white"/>
<stop offset="1" stop-color="#1C7EFF" stop-opacity="0"/>
</radialGradient>
<radialGradient id="paint48_radial_209_7129" cx="0" cy="0" r="1" gradientUnits="userSpaceOnUse" gradientTransform="translate(200 918) rotate(90) scale(5)">
<stop offset="0.015625" stop-color="white"/>
<stop offset="1" stop-color="#1C7EFF" stop-opacity="0"/>
</radialGradient>
<clipPath id="clip0_209_7129">
<rect width="828" height="1728" fill="white" transform="translate(-31 -49)"/>
</clipPath>
</defs>
</svg>
