<svg width="122" height="27" viewBox="0 0 122 27" fill="none" xmlns="http://www.w3.org/2000/svg">
<g id="certur1">
<g id="Frame 66">
<g id="Frame" clip-path="url(#clip0_2_1035)">
<path id="Vector" d="M20 18.781L18.1758 18.2172L14.4942 17.0895C14.0299 19.8092 12.4046 21.1027 10.4809 21.1027C7.39635 21.1027 6.36816 19.179 6.36816 14.8673C6.36816 10.7213 8.29187 9.29515 10.4809 9.29515C12.2388 9.29515 13.5987 10.058 14.2289 12.1807L19.8673 10.9204C18.5738 6.50909 15.0912 4.51904 10.3151 4.51904C4.21227 4.51904 0 8.16746 0 15.0663C0 21.6003 3.61526 25.8789 10.4146 25.8789C16.2521 25.8457 19.0713 23.1923 20 18.781Z" fill="url(#paint0_linear_2_1035)"/>
<path id="Vector_2" d="M19.8336 10.9203L14.1952 12.1806C13.565 10.0579 12.2051 9.29507 10.4472 9.29507C10.0492 9.29507 9.68438 9.32824 9.31954 9.42774C9.28637 9.42774 9.2532 9.46091 9.22004 9.46091H9.18687C9.08737 9.49408 8.9547 9.52725 8.85519 9.52725C6.79881 9.99159 5.04093 8.89706 3.44889 7.07286C3.38256 7.03969 3.31622 6.94019 3.24989 6.87385C2.88504 6.44268 2.55337 5.97833 2.18853 5.48082C1.92319 5.04964 1.62468 4.65164 1.32617 4.22046C2.68604 5.81249 4.60975 5.64666 6.5998 5.04964C7.7275 4.71797 8.9547 4.51897 10.2814 4.51897C12.1388 4.51897 13.8303 4.81747 15.2565 5.44765C17.4787 6.47584 19.0708 8.23372 19.8336 10.9203Z" fill="url(#paint1_linear_2_1035)"/>
<path id="Vector_3" d="M6.36816 14.8673C6.36816 11.5837 7.59536 9.99165 9.1874 9.49413C9.08789 9.5273 8.95522 9.56047 8.85572 9.56047C6.79934 10.0248 5.04146 8.93029 3.44942 7.10608C3.38308 7.03975 3.31675 6.94024 3.25041 6.87391C2.71973 6.21056 1.79104 4.88386 1.3267 4.22052C1.2272 4.08785 0.995025 4.15418 0.79602 4.51902C0.563847 4.9502 0.464345 5.24871 0.331675 5.71305C0.232172 6.17739 0.165837 6.64174 0.0995025 7.13925C0.0331675 7.66993 0 8.20061 0 8.73128C0 9.82581 0.0995025 10.9203 0.331675 11.9817V12.0149C0.464345 12.645 0.66335 13.2752 0.895522 13.9054C1.3267 15.0994 2.12272 16.7246 3.54892 18.1508C4.64345 19.2454 6.13599 20.174 8.09287 20.7047C8.39138 20.7711 8.68988 20.8374 8.98839 20.9037C8.62355 20.8042 8.29187 20.6384 8.02653 20.4394C6.79934 19.577 6.36816 17.7528 6.36816 14.8673Z" fill="url(#paint2_linear_2_1035)"/>
</g>
</g>
<path id="certux" d="M25.99 15.69C25.99 13.97 26.34 12.47 27.04 11.19C27.74 9.89 28.71 8.89 29.95 8.19C31.19 7.47 32.61 7.11 34.21 7.11C36.27 7.11 37.97 7.63 39.31 8.67C40.67 9.69 41.58 11.13 42.04 12.99H37.51C37.27 12.27 36.86 11.71 36.28 11.31C35.72 10.89 35.02 10.68 34.18 10.68C32.98 10.68 32.03 11.12 31.33 12C30.63 12.86 30.28 14.09 30.28 15.69C30.28 17.27 30.63 18.5 31.33 19.38C32.03 20.24 32.98 20.67 34.18 20.67C35.88 20.67 36.99 19.91 37.51 18.39H42.04C41.58 20.19 40.67 21.62 39.31 22.68C37.95 23.74 36.25 24.27 34.21 24.27C32.61 24.27 31.19 23.92 29.95 23.22C28.71 22.5 27.74 21.5 27.04 20.22C26.34 18.92 25.99 17.41 25.99 15.69ZM60.5669 15.33C60.5669 15.93 60.5269 16.47 60.4469 16.95H48.2969C48.3969 18.15 48.8169 19.09 49.5569 19.77C50.2969 20.45 51.2069 20.79 52.2869 20.79C53.8469 20.79 54.9569 20.12 55.6169 18.78H60.1469C59.6669 20.38 58.7469 21.7 57.3869 22.74C56.0269 23.76 54.3569 24.27 52.3769 24.27C50.7769 24.27 49.3369 23.92 48.0569 23.22C46.7969 22.5 45.8069 21.49 45.0869 20.19C44.3869 18.89 44.0369 17.39 44.0369 15.69C44.0369 13.97 44.3869 12.46 45.0869 11.16C45.7869 9.86 46.7669 8.86 48.0269 8.16C49.2869 7.46 50.7369 7.11 52.3769 7.11C53.9569 7.11 55.3669 7.45 56.6069 8.13C57.8669 8.81 58.8369 9.78 59.5169 11.04C60.2169 12.28 60.5669 13.71 60.5669 15.33ZM56.2169 14.13C56.1969 13.05 55.8069 12.19 55.0469 11.55C54.2869 10.89 53.3569 10.56 52.2569 10.56C51.2169 10.56 50.3369 10.88 49.6169 11.52C48.9169 12.14 48.4869 13.01 48.3269 14.13H56.2169ZM67.8325 9.96C68.3725 9.08 69.0725 8.39 69.9325 7.89C70.8125 7.39 71.8125 7.14 72.9325 7.14V11.55H71.8225C70.5025 11.55 69.5025 11.86 68.8225 12.48C68.1625 13.1 67.8325 14.18 67.8325 15.72V24H63.6325V7.38H67.8325V9.96ZM80.6514 10.83V18.87C80.6514 19.43 80.7814 19.84 81.0414 20.1C81.3214 20.34 81.7814 20.46 82.4214 20.46H84.3714V24H81.7314C78.1914 24 76.4214 22.28 76.4214 18.84V10.83H74.4414V7.38H76.4214V3.27H80.6514V7.38H84.3714V10.83H80.6514ZM103.082 7.38V24H98.8523V21.9C98.3123 22.62 97.6023 23.19 96.7223 23.61C95.8623 24.01 94.9223 24.21 93.9023 24.21C92.6023 24.21 91.4523 23.94 90.4523 23.4C89.4523 22.84 88.6623 22.03 88.0823 20.97C87.5223 19.89 87.2423 18.61 87.2423 17.13V7.38H91.4423V16.53C91.4423 17.85 91.7723 18.87 92.4323 19.59C93.0923 20.29 93.9923 20.64 95.1323 20.64C96.2923 20.64 97.2023 20.29 97.8623 19.59C98.5223 18.87 98.8523 17.85 98.8523 16.53V7.38H103.082ZM116.406 24L112.986 18.84L109.956 24H105.456L110.886 15.66L105.396 7.38H110.136L113.526 12.51L116.586 7.38H121.086L115.626 15.66L121.146 24H116.406Z" fill="white"/>
</g>
<defs>
<linearGradient id="paint0_linear_2_1035" x1="-3.33333" y1="16.2375" x2="21.8331" y2="10.3794" gradientUnits="userSpaceOnUse">
<stop offset="0.5625" stop-color="#448AFF"/>
<stop offset="1" stop-color="#00ECC2"/>
</linearGradient>
<linearGradient id="paint1_linear_2_1035" x1="-2.08366" y1="3.73747" x2="16.2909" y2="18.9244" gradientUnits="userSpaceOnUse">
<stop offset="0.5625" stop-color="#448AFF"/>
<stop offset="1" stop-color="#00ECC2"/>
</linearGradient>
<linearGradient id="paint2_linear_2_1035" x1="25.8502" y1="-5.37416" x2="21.0932" y2="20.1324" gradientUnits="userSpaceOnUse">
<stop offset="0.5625" stop-color="#448AFF"/>
<stop offset="1" stop-color="#00ECC2"/>
</linearGradient>
<clipPath id="clip0_2_1035">
<rect width="20" height="21.6915" fill="white" transform="translate(0 4.1543)"/>
</clipPath>
</defs>
</svg>
