<svg width="105" height="32" viewBox="0 0 105 32" fill="none" xmlns="http://www.w3.org/2000/svg">
<path d="M36.0082 15.7941C35.9778 15.05 36.0961 14.3073 36.3562 13.6088C36.6164 12.9104 37.0132 12.27 37.5239 11.7246C38.0346 11.1792 38.6489 10.7396 39.3316 10.4312C40.0142 10.1228 40.7516 9.9517 41.5011 9.92773H41.734C44.631 9.92773 46.3408 11.62 46.8464 13.5999L45.0457 14.1978C44.8839 13.46 44.4604 12.8045 43.8525 12.351C43.2445 11.8974 42.4927 11.676 41.734 11.7271C39.8595 11.7271 37.9793 13.0866 37.9793 15.828C37.9793 18.5694 39.814 19.878 41.7567 19.878C42.5192 19.8987 43.2665 19.6649 43.8793 19.2139C44.492 18.7629 44.9348 18.1208 45.1366 17.3905L46.9032 17.9545C46.5983 19.0687 45.92 20.0463 44.9802 20.7262C44.0405 21.4061 42.8955 21.7476 41.734 21.6943C40.2419 21.7215 38.8 21.1593 37.7253 20.1311C36.6505 19.103 36.0308 17.6932 36.0025 16.2115C35.9968 16.0762 36.0025 15.9351 36.0082 15.7941Z" fill="white"/>
<path d="M50.4081 21.435H48.5449V9.89404H50.4081V14.4066C50.6786 14.0881 51.0188 13.8351 51.4027 13.6669C51.7866 13.4988 52.2042 13.4199 52.6235 13.4364C54.5491 13.4364 55.4637 14.8071 55.4637 16.5163V21.435H53.6687V16.8435C53.7224 16.452 53.6192 16.0553 53.3812 15.7388C53.1432 15.4222 52.7895 15.2112 52.3962 15.1512C52.2848 15.1399 52.1725 15.1399 52.0611 15.1512C51.6302 15.1512 51.217 15.3212 50.9123 15.6237C50.6077 15.9263 50.4365 16.3366 50.4365 16.7645C50.4337 16.8114 50.4337 16.8585 50.4365 16.9055L50.4081 21.435Z" fill="white"/>
<path d="M59.6444 16.9899L61.6439 16.6797C62.0983 16.6233 62.2119 16.392 62.2119 16.1156C62.2119 15.4613 61.7688 14.9367 60.735 14.9367C60.3446 14.9053 59.9574 15.0281 59.6575 15.2784C59.3577 15.5286 59.1692 15.8862 59.1331 16.2736V16.3582L57.429 15.9802C57.571 14.6377 58.798 13.4419 60.718 13.4419C63.1265 13.4419 64.041 14.7957 64.041 16.3751V20.2277C64.039 20.6452 64.0713 21.0621 64.1376 21.4743H62.4335C62.3721 21.1471 62.3473 20.8142 62.3596 20.4816C62.101 20.8769 61.7424 21.1979 61.3198 21.4127C60.8972 21.6275 60.4253 21.7285 59.9511 21.7056C59.3035 21.7587 58.6611 21.5545 58.1648 21.1379C57.6686 20.7212 57.359 20.1261 57.304 19.4831C57.304 19.4437 57.304 19.4042 57.304 19.3703C57.2756 17.9432 58.3038 17.1761 59.6444 16.9899ZM62.2233 18.2365V17.8812L60.184 18.1858C59.9072 18.1945 59.6445 18.3091 59.4507 18.5057C59.257 18.7023 59.1473 18.9656 59.1445 19.2406C59.1467 19.3769 59.1762 19.5114 59.2313 19.6362C59.2863 19.761 59.3659 19.8737 59.4653 19.9677C59.5647 20.0617 59.682 20.1351 59.8102 20.1836C59.9385 20.2321 60.0752 20.2548 60.2124 20.2503H60.2976C60.5301 20.2745 60.7652 20.2527 60.9892 20.1863C61.2132 20.1199 61.4217 20.0101 61.6029 19.8633C61.784 19.7165 61.934 19.5355 62.0444 19.3309C62.1548 19.1262 62.2233 18.9019 62.246 18.6709C62.2541 18.5255 62.2446 18.3797 62.2176 18.2365H62.2233Z" fill="white"/>
<path d="M67.2107 9.73589C67.3708 9.73366 67.5297 9.76285 67.6785 9.82181C67.8272 9.88077 67.9627 9.96832 68.0772 10.0794C68.1918 10.1906 68.2831 10.3231 68.3459 10.4693C68.4087 10.6156 68.4418 10.7727 68.4433 10.9317C68.4433 11.1698 68.3724 11.4025 68.2396 11.6006C68.1067 11.7987 67.9179 11.9534 67.6967 12.0453C67.4756 12.1371 67.2321 12.162 66.9967 12.1167C66.7614 12.0715 66.5448 11.9582 66.3741 11.7911C66.2035 11.624 66.0864 11.4105 66.0376 11.1774C65.9887 10.9444 66.0104 10.7022 66.0998 10.4814C66.1892 10.2605 66.3424 10.0709 66.54 9.93622C66.7377 9.80157 66.971 9.72795 67.2107 9.72461V9.73589ZM66.3018 21.4687V13.6731H68.165V21.4348L66.3018 21.4687Z" fill="white"/>
<path d="M72.4083 21.4351H70.5508V13.6734H72.3628V14.7057C72.5991 14.3093 72.9384 13.9833 73.3452 13.762C73.7519 13.5407 74.2112 13.4321 74.6748 13.4478C76.5834 13.4478 77.515 14.8185 77.515 16.5276V21.4351H75.6575V16.8435C75.6575 15.8902 75.2201 15.1174 74.0499 15.1174C73.8336 15.1189 73.6197 15.1627 73.4204 15.2463C73.2211 15.3298 73.0403 15.4516 72.8884 15.6045C72.7365 15.7575 72.6164 15.9386 72.535 16.1377C72.4536 16.3367 72.4125 16.5497 72.414 16.7645C72.414 16.8266 72.414 16.8886 72.414 16.9507L72.4083 21.4351Z" fill="white"/>
<path d="M79.7644 21.435V9.89404H81.6276V21.435H79.7644Z" fill="white"/>
<path d="M84.9506 9.73585C85.1904 9.73474 85.4251 9.8044 85.6249 9.93599C85.8248 10.0676 85.9807 10.2552 86.073 10.4749C86.1653 10.6947 86.1897 10.9367 86.1432 11.1703C86.0967 11.4039 85.9814 11.6185 85.8118 11.7869C85.6423 11.9553 85.4262 12.0698 85.1909 12.116C84.9557 12.1622 84.7119 12.1379 84.4906 12.0463C84.2693 11.9546 84.0804 11.7998 83.9479 11.6013C83.8154 11.4029 83.7452 11.1698 83.7464 10.9317C83.7493 10.6154 83.8771 10.313 84.1023 10.0894C84.3275 9.86573 84.6321 9.7388 84.9506 9.73585ZM84.0361 21.4686V13.6731H85.8822V21.4348L84.0361 21.4686Z" fill="white"/>
<path d="M90.154 21.435H88.2908V13.6733H90.1028V14.7055C90.3395 14.3096 90.6789 13.984 91.0856 13.7627C91.4923 13.5414 91.9513 13.4326 92.4148 13.4477C94.3234 13.4477 95.255 14.8184 95.255 16.5275V21.435H93.3918V16.8434C93.4456 16.452 93.3423 16.0552 93.1043 15.7387C92.8663 15.4222 92.5126 15.2112 92.1194 15.1512C92.0061 15.1399 91.8919 15.1399 91.7786 15.1512C91.3446 15.1556 90.93 15.3299 90.6247 15.6362C90.3195 15.9425 90.1482 16.3561 90.1483 16.787C90.1425 16.8527 90.1425 16.9187 90.1483 16.9844L90.154 21.435Z" fill="white"/>
<path d="M101.611 16.9506L104.889 21.4632H102.617L100.345 18.2649L99.3846 19.269V21.435H97.5385V9.89404H99.3846V16.8096L102.384 13.6733H104.855L101.611 16.9506Z" fill="white"/>
<path d="M13.9511 6.76891L22.0059 11.3605V20.5888L13.9738 25.2085L5.92468 20.6282V11.4056L13.9511 6.76891ZM13.9511 0L10.9973 1.69223L2.95382 6.32893L0 8.02115V24.024L2.95382 25.7162L11.0086 30.3078L13.9625 32L16.9163 30.3078L24.9427 25.6824L27.8965 23.9901V7.96475L24.9427 6.27252L16.8936 1.69223L13.9397 0H13.9511Z" fill="white"/>
</svg>
