<svg width="89" height="132" viewBox="0 0 89 132" fill="none" xmlns="http://www.w3.org/2000/svg">
<path d="M63.48 61.44L62.3158 58.6751L54.6104 61.9195L62.6207 64.3143L63.48 61.44ZM5.56 35.36L2.59952 34.8747L2.02815 38.36H5.56V35.36ZM19.48 35.36V38.36H22.1392L22.4583 35.72L19.48 35.36ZM29.08 56.32V53.32H26.08V56.32H29.08ZM29.08 67.68H26.08V70.68H29.08V67.68ZM14.84 92.64L17.8093 92.2117L17.4384 89.64H14.84V92.64ZM0.76 92.64V89.64H-2.58924L-2.2219 92.969L0.76 92.64ZM47 134.04C59.8584 134.04 70.8976 130.042 78.7574 122.9C86.6401 115.738 91.12 105.594 91.12 93.76H85.12C85.12 104.006 81.2799 112.502 74.7226 118.46C68.1424 124.438 58.6216 128.04 47 128.04V134.04ZM91.12 93.76C91.12 77.7115 81.1271 63.5847 64.3393 58.5657L62.6207 64.3143C76.8729 68.5753 85.12 80.3685 85.12 93.76H91.12ZM64.6442 64.2049C77.8918 58.627 85.84 46.8338 85.84 32.64H79.84C79.84 44.3662 73.3882 54.013 62.3158 58.6751L64.6442 64.2049ZM85.84 32.64C85.84 11.8136 69.1517 -2.84 46.68 -2.84V3.16C66.4483 3.16 79.84 15.7063 79.84 32.64H85.84ZM46.68 -2.84C33.6071 -2.84 23.3657 1.3121 15.9675 8.25199C8.60641 15.1571 4.2821 24.6109 2.59952 34.8747L8.52048 35.8453C10.0379 26.5891 13.8736 18.4429 20.0725 12.628C26.2343 6.8479 34.9529 3.16 46.68 3.16V-2.84ZM5.56 38.36H19.48V32.36H5.56V38.36ZM22.4583 35.72C23.2636 29.058 25.9358 23.8926 29.9052 20.3892C33.8753 16.8851 39.3742 14.84 46.2 14.84L46.2 8.84C38.1458 8.84 31.1647 11.2748 25.9348 15.8908C20.7042 20.5074 17.4564 27.102 16.5017 35L22.4583 35.72ZM46.2 14.84C52.6266 14.84 57.638 16.8031 61.0189 19.9998C64.3831 23.1808 66.4 27.8332 66.4 33.76H72.4C72.4 26.4068 69.8569 20.0992 65.1411 15.6402C60.442 11.1969 53.8534 8.84 46.2 8.84L46.2 14.84ZM66.4 33.76C66.4 40.2015 64.3232 44.9696 60.8056 48.1569C57.248 51.3804 51.8473 53.32 44.6 53.32V59.32C52.8727 59.32 59.872 57.0996 64.8344 52.6031C69.8368 48.0704 72.4 41.5585 72.4 33.76H66.4ZM44.6 53.32H29.08V59.32H44.6V53.32ZM26.08 56.32V67.68H32.08V56.32H26.08ZM29.08 70.68H45.08V64.68H29.08V70.68ZM45.08 70.68C53.6038 70.68 60.2437 72.9792 64.704 76.8146C69.1122 80.6054 71.68 86.1387 71.68 93.28H77.68C77.68 84.5812 74.4878 77.3146 68.616 72.2654C62.7963 67.2608 54.6362 64.68 45.08 64.68V70.68ZM71.68 93.28C71.68 100.497 69.2568 106.177 65.0921 110.068C60.9061 113.978 54.6589 116.36 46.52 116.36V122.36C55.8212 122.36 63.6539 119.622 69.1879 114.452C74.7432 109.263 77.68 101.903 77.68 93.28H71.68ZM46.52 116.36C38.7261 116.36 32.1122 114.028 27.2006 109.935C22.2997 105.851 18.9131 99.865 17.8093 92.2117L11.8707 93.0683C13.1669 102.055 17.2203 109.429 23.3594 114.545C29.4878 119.652 37.5139 122.36 46.52 122.36V116.36ZM14.84 89.64H0.76V95.64H14.84V89.64ZM-2.2219 92.969C-0.864459 105.271 4.51133 115.601 13.131 122.838C21.7367 130.063 33.3744 134.04 47 134.04V128.04C34.5456 128.04 24.3433 124.417 16.989 118.242C9.64867 112.079 4.94446 103.209 3.7419 92.311L-2.2219 92.969Z" fill="#B14DFF" fill-opacity="0.2"/>
</svg>
