<svg width="45" height="125" viewBox="0 0 45 125" fill="none" xmlns="http://www.w3.org/2000/svg">
<path d="M44.84 125V128H47.84V125H44.84ZM44.84 0.199997H47.84V-2.8H44.84V0.199997ZM34.6 0.199997V-2.8H32.3155L31.708 -0.597794L34.6 0.199997ZM0.68 31.08L-0.172265 28.2036L-2.32 28.84V31.08H0.68ZM0.68 44.04H-2.32V47.9188L1.43419 46.9436L0.68 44.04ZM31.4 26.12H34.4V17.7477L29.0827 24.2147L31.4 26.12ZM31.4 125H28.4V128H31.4V125ZM47.84 125L47.84 0.199997H41.84L41.84 125H47.84ZM44.84 -2.8H34.6V3.2H44.84V-2.8ZM31.708 -0.597794C28.2061 12.0967 16.3635 23.3041 -0.172265 28.2036L1.53227 33.9564C19.5565 28.6159 33.3139 16.1433 37.492 0.997784L31.708 -0.597794ZM-2.32 31.08L-2.32 44.04H3.68L3.68 31.08H-2.32ZM1.43419 46.9436C14.2121 43.6247 27.3035 35.8258 33.7173 28.0253L29.0827 24.2147C23.6565 30.8142 11.7879 38.0553 -0.0741942 41.1363L1.43419 46.9436ZM28.4 26.12L28.4 125H34.4V26.12H28.4ZM31.4 128H44.84V122H31.4V128Z" fill="#12E6C8" fill-opacity="0.1"/>
</svg>
