<svg width="93" height="129" viewBox="0 0 93 129" fill="none" xmlns="http://www.w3.org/2000/svg">
<path d="M21.08 55.56L18.1133 55.1144L23.4746 57.3672L21.08 55.56ZM27.64 11.88L27.64 8.88H25.0569L24.6733 11.4344L27.64 11.88ZM82.52 11.88V14.88H85.52V11.88H82.52ZM82.52 0.199997H85.52V-2.8H82.52V0.199997ZM16.12 0.199997V-2.8H13.5355L13.153 -0.243992L16.12 0.199997ZM6.04 67.56L3.07304 67.116L2.55767 70.56H6.04V67.56ZM20.92 67.56V70.56H22.5983L23.4765 69.1298L20.92 67.56ZM70.36 107.56L68.1806 105.498L70.36 107.56ZM14.84 88.84L17.8007 88.356L17.3894 85.84H14.84V88.84ZM0.76 88.84V85.84H-2.76567L-2.20132 89.3202L0.76 88.84ZM16.12 117.32L14.1569 119.589L16.12 117.32ZM48.6 131.04C62.2268 131.04 73.9035 126.116 82.1711 117.611C90.4314 109.114 95.12 97.2168 95.12 83.56H89.12C89.12 95.8232 84.9286 106.166 77.8689 113.429C70.8165 120.684 60.7332 125.04 48.6 125.04V131.04ZM95.12 83.56C95.12 70.6267 90.713 59.439 82.8558 51.4733C74.9941 43.503 63.8763 38.96 50.84 38.96V44.96C62.4437 44.96 71.9659 48.977 78.5842 55.6867C85.207 62.401 89.12 72.0133 89.12 83.56H95.12ZM50.84 38.96C37.8934 38.96 25.7394 44.4063 18.6854 53.7528L23.4746 57.3672C29.2206 49.7537 39.4666 44.96 50.84 44.96V38.96ZM24.0467 56.0056L30.6067 12.3256L24.6733 11.4344L18.1133 55.1144L24.0467 56.0056ZM27.64 14.88H82.52V8.88L27.64 8.88L27.64 14.88ZM85.52 11.88V0.199997H79.52V11.88H85.52ZM82.52 -2.8L16.12 -2.8V3.2L82.52 3.2V-2.8ZM13.153 -0.243992L3.07304 67.116L9.00696 68.004L19.087 0.643982L13.153 -0.243992ZM6.04 70.56H20.92V64.56H6.04V70.56ZM23.4765 69.1298C28.4861 60.9713 37.2344 56.16 47.96 56.16V50.16C35.3256 50.16 24.5539 55.9087 18.3635 65.9902L23.4765 69.1298ZM47.96 56.16C56.3674 56.16 63.2525 59.0597 68.0309 63.8735C72.8114 68.6895 75.68 75.6199 75.68 84.04H81.68C81.68 74.2201 78.3086 65.7105 72.2891 59.6465C66.2675 53.5803 57.7926 50.16 47.96 50.16V56.16ZM75.68 84.04C75.68 93.2155 73.1404 100.255 68.1806 105.498L72.5394 109.622C78.7796 103.025 81.68 94.3845 81.68 84.04H75.68ZM68.1806 105.498C63.2308 110.731 56.7055 113.36 48.28 113.36V119.36C58.0945 119.36 66.2892 116.229 72.5394 109.622L68.1806 105.498ZM48.28 113.36C39.6844 113.36 32.7156 110.828 27.6084 106.542C22.5014 102.256 19.0588 96.0527 17.8007 88.356L11.8793 89.324C13.3412 98.2673 17.4186 105.824 23.7516 111.138C30.0844 116.452 38.4756 119.36 48.28 119.36V113.36ZM14.84 85.84H0.76V91.84H14.84V85.84ZM-2.20132 89.3202C-0.178308 101.795 5.2608 111.89 14.1569 119.589L18.0831 115.051C10.3392 108.35 5.53831 99.5646 3.72132 88.3598L-2.20132 89.3202ZM14.1569 119.589C23.1424 127.364 34.7758 131.04 48.6 131.04V125.04C35.8642 125.04 25.7376 121.676 18.0831 115.051L14.1569 119.589Z" fill="#12E667" fill-opacity="0.1"/>
</svg>
