<svg width="83" height="128" viewBox="0 0 83 128" fill="none" xmlns="http://www.w3.org/2000/svg">
<path d="M82.76 128V131H85.76V128H82.76ZM82.76 116.32H85.76V113.32H82.76V116.32ZM16.68 116.32L13.7028 115.951L13.2854 119.32H16.68V116.32ZM49.8 73.92L51.2884 76.5247L51.2997 76.5183L49.8 73.92ZM44.36 0.159996L44.4038 -2.83968L44.3819 -2.84H44.36V0.159996ZM1.64 40.64L-1.35105 40.4084L-1.60123 43.64H1.64V40.64ZM15.24 40.64V43.64H18.0163L18.231 40.8721L15.24 40.64ZM43.88 62.4L42.4308 59.7733L42.4193 59.7796L42.4079 59.786L43.88 62.4ZM0.52 128L-2.47598 127.845L-2.63946 131H0.52V128ZM85.76 128V116.32H79.76V128H85.76ZM82.76 113.32H16.68V119.32H82.76V113.32ZM19.6572 116.689C20.7247 108.073 23.2445 101.208 28.0552 94.9725C32.9141 88.6748 40.255 82.8296 51.2884 76.5247L48.3116 71.3153C36.9451 77.8104 28.8459 84.1252 23.3048 91.3075C17.7155 98.552 14.8753 106.487 13.7028 115.951L19.6572 116.689ZM51.2997 76.5183C63.3124 69.5847 71.6521 63.346 76.9604 56.4259C82.3738 49.3687 84.48 41.812 84.48 32.64H78.48C78.48 40.748 76.6662 46.9513 72.1997 52.7741C67.6279 58.734 60.1276 64.4953 48.3003 71.3217L51.2997 76.5183ZM84.48 32.64C84.48 22.2645 80.3135 13.3958 73.1111 7.11841C65.9436 0.871475 55.94 -2.67128 44.4038 -2.83968L44.3162 3.15968C54.7001 3.31126 63.2564 6.48851 69.1689 11.6416C75.0465 16.7642 78.48 23.9755 78.48 32.64H84.48ZM44.36 -2.84C31.4598 -2.84 20.4847 1.30487 12.4724 8.92632C4.46818 16.5401 -0.343812 27.3983 -1.35105 40.4084L4.63105 40.8716C5.54381 29.0817 9.85182 19.6999 16.6076 13.2737C23.3554 6.85512 32.7802 3.16 44.36 3.16V-2.84ZM1.64 43.64H15.24V37.64H1.64V43.64ZM18.231 40.8721C18.9134 32.0764 21.6488 25.6338 25.8813 21.4013C30.0838 17.1989 36.0968 14.84 44.04 14.84L44.04 8.84C34.8632 8.84 27.1962 11.6011 21.6387 17.1587C16.1112 22.6862 13.0066 30.6435 12.249 40.4079L18.231 40.8721ZM44.04 14.84C50.9227 14.84 56.21 16.7972 59.7299 19.8624C63.2145 22.8969 65.2 27.2116 65.2 32.48H71.2C71.2 25.5884 68.5455 19.5831 63.6702 15.3376C58.83 11.1227 52.0373 8.84 44.04 8.84L44.04 14.84ZM65.2 32.48C65.2 38.1668 63.9186 42.3814 60.6692 46.3912C57.2903 50.5609 51.6388 54.693 42.4308 59.7733L45.3292 65.0267C54.6812 59.867 61.1897 55.2791 65.3308 50.1687C69.6014 44.8986 71.2 39.2732 71.2 32.48H65.2ZM42.4079 59.786C26.983 68.4727 16.0954 77.4413 8.89352 88.3915C1.67244 99.3709 -1.65808 112.059 -2.47598 127.845L3.51598 128.155C4.29809 113.061 7.44756 101.509 13.9065 91.6885C20.3846 81.8387 30.377 73.4473 45.3521 65.014L42.4079 59.786ZM0.52 131H82.76V125H0.52V131Z" fill="#FBFF20" fill-opacity="0.1"/>
</svg>
