<svg width="92" height="125" viewBox="0 0 92 125" fill="none" xmlns="http://www.w3.org/2000/svg">
<path d="M75.56 125V128H78.56V125H75.56ZM75.56 92.36V89.36H72.56V92.36H75.56ZM91.24 92.36V95.36H94.24V92.36H91.24ZM91.24 80.68H94.24V77.68H91.24V80.68ZM75.56 80.68H72.56V83.68H75.56V80.68ZM75.56 0.199997H78.56V-2.8H75.56V0.199997ZM60.68 0.199997V-2.8H59.1878L58.2875 -1.61L60.68 0.199997ZM0.52 79.72L-1.87247 77.91L-2.48 78.713V79.72H0.52ZM0.52 92.36H-2.48V95.36H0.52L0.52 92.36ZM62.28 92.36H65.28V89.36H62.28V92.36ZM62.28 125H59.28V128H62.28V125ZM62.28 16.04H65.28V7.01614L59.8772 14.2438L62.28 16.04ZM62.28 80.68V83.68H65.28V80.68H62.28ZM13.96 80.68L11.5571 78.8838L7.97188 83.68H13.96V80.68ZM78.56 125V92.36H72.56V125H78.56ZM75.56 95.36H91.24V89.36H75.56V95.36ZM94.24 92.36V80.68H88.24V92.36H94.24ZM91.24 77.68H75.56V83.68H91.24V77.68ZM78.56 80.68L78.56 0.199997H72.56L72.56 80.68H78.56ZM75.56 -2.8L60.68 -2.8V3.2L75.56 3.2V-2.8ZM58.2875 -1.61L-1.87247 77.91L2.91247 81.53L63.0725 2.00999L58.2875 -1.61ZM-2.48 79.72L-2.48 92.36H3.52L3.52 79.72H-2.48ZM0.52 95.36H62.28V89.36H0.52L0.52 95.36ZM59.28 92.36V125H65.28V92.36H59.28ZM62.28 128H75.56V122H62.28V128ZM59.28 16.04V80.68H65.28L65.28 16.04H59.28ZM62.28 77.68H13.96V83.68H62.28V77.68ZM16.3629 82.4762L64.6829 17.8362L59.8772 14.2438L11.5571 78.8838L16.3629 82.4762Z" fill="#72C955" fill-opacity="0.1"/>
</svg>
